<?xml version="1.0" encoding="UTF-8" standalone="no"?>
<svg
   fill="none"
   height="141.58501"
   viewBox="0 0 174.35344 141.58501"
   width="174.35344"
   version="1.1"
   id="svg25209"
   sodipodi:docname="keycap.svg"
   inkscape:version="1.2.2 (b0a8486, 2022-12-01)"
   xmlns:inkscape="http://www.inkscape.org/namespaces/inkscape"
   xmlns:sodipodi="http://sodipodi.sourceforge.net/DTD/sodipodi-0.dtd"
   xmlns="http://www.w3.org/2000/svg"
   xmlns:svg="http://www.w3.org/2000/svg">
  <defs
     id="defs25213" />
  <sodipodi:namedview
     id="namedview25211"
     pagecolor="#ffffff"
     bordercolor="#666666"
     borderopacity="1.0"
     inkscape:showpageshadow="2"
     inkscape:pageopacity="0.0"
     inkscape:pagecheckerboard="0"
     inkscape:deskcolor="#d1d1d1"
     showgrid="false"
     inkscape:zoom="3.2107996"
     inkscape:cx="81.755337"
     inkscape:cy="63.847025"
     inkscape:window-width="1440"
     inkscape:window-height="847"
     inkscape:window-x="0"
     inkscape:window-y="25"
     inkscape:window-maximized="1"
     inkscape:current-layer="svg25209" />
  <path
     d="m 28.421388,2.857241 c 0,0 -11.166678,-0.22339 -22.182388,11.057759 -0.93,1.805 -1.477,3.829 -1.532,5.853 L 0.933,124.136 c -0.274,7.603 5.743,14.003 13.401,14.112 l 145.448,2.516 c 7.986,0.165 14.386,-6.618 13.839,-14.604 L 166.182,19.822 c -0.164,-2.297 -0.875,-4.485 -2.133,-6.454 L 142.57291,1.81917"
     fill="#f4f4f4"
     id="path25173"
     sodipodi:nodetypes="cccccccccc"
     style="fill:#ffffff;fill-opacity:0.57723576" />
  <path
     d="m 31.775215,2.256206 c 0,0 -18.169982,2.076121 -24.992215,12.041794 -0.492,0.93 -0.875,1.969 -1.149,3.008 -0.109,0.547 -0.219,1.094 -0.273,1.641 0,0.274 0,0.547 -0.055,0.821 v 0.875 L 5.032,27.59 4.54,41.484 3.556,69.271 1.586,124.792 c 0,2.188 0.602,4.376 1.696,6.291 1.094,1.914 2.68,3.5 4.54,4.649 1.86,1.149 4.048,1.751 6.236,1.805 l 6.947,0.11 27.788,0.437 55.63,0.93 55.575,0.875 c 2.188,0 4.321,-0.601 6.236,-1.695 1.86,-1.094 3.501,-2.626 4.595,-4.486 1.148,-1.86 1.75,-3.993 1.805,-6.181 v -1.641 l -0.11,-1.75 -0.273,-3.446 -1.969,-27.733 -3.939,-55.466 -0.984,-13.894 -0.274,-3.446 C 165.03,19.057 164.812,18.017 164.483,16.978 162.83952,9.099189 142.2485,2.023012 142.2485,2.023012 l 1.915,-1.094 c 0,0 21.51746,7.923887 22.3435,15.446988 0.383,1.204 0.602,2.462 0.657,3.665 l 0.218,3.446 0.93,13.894 3.775,55.466 1.914,27.733 0.219,3.446 0.109,1.751 c 0,0.547 0.055,1.203 0,1.805 -0.109,2.461 -0.82,4.923 -2.078,7.001 -1.258,2.134 -3.118,3.884 -5.251,5.088 -2.134,1.203 -4.595,1.859 -7.057,1.914 l -55.63,-0.985 -55.63,-0.984 -27.788,-0.492 -6.946,-0.11 C 11.487,138.959 9.08,138.248 7.002,136.99 4.923,135.732 3.173,133.927 1.915,131.794 0.711,129.66 0.055,127.254 0,124.792 L 2.024,69.162 3.009,41.374 3.501,27.48 3.774,20.534 v -0.876 c 0,-0.328 0.055,-0.601 0.11,-0.93 0.054,-0.601 0.164,-1.203 0.273,-1.805 0.274,-1.203 0.711,-2.352 1.258,-3.391 V 13.477 C 12.059303,3.905188 31.290812,0.80389 31.290812,0.80389 Z"
     fill="#3F52E4"
     id="path25175"
     style="fill:#000000;fill-opacity:1"
     sodipodi:nodetypes="cccccccccccscccccccccccccccccccccccccccccccccccccccccscccccc" />
  <path
     d="m 142.217,103.547 c 0,0 -21.15098,2.55205 -55.083,2.45367 C 53.20198,105.90227 31.942,103.219 31.942,103.219 29.48,103.164 27.019,102.07 25.268,100.32 23.518,98.57 22.479,96.108 22.424,93.647 V 79.862 52.293 24.724 17.832 14.386 13.511 12.581 c 0,-0.602 0.164,-1.203 0.219,-1.805 C 22.916,9.573 23.299,8.424 23.846,7.33 24.448,6.291 25.104,5.251 25.925,4.376 26.745,3.501 27.675,2.68 28.769,2.079 29.261,1.75 29.863,1.532 30.41,1.258 30.957,1.039 31.559,0.821 32.16,0.656 33.309,0.328 34.567,0.219 35.771,0.164 53.00137,0.1788 70.23167,0.991261 87.462,0.956861 104.6935,1.034261 121.92282,0 139.154,0 c 1.258,0 2.461,0.219 3.665,0.547 2.352,0.711 4.54,2.079 6.181,3.938 0.438,0.438 0.766,0.985 1.149,1.477 0.328,0.547 0.656,1.04 0.93,1.587 0.547,1.094 0.929,2.297 1.148,3.5 l 0.164,0.93 v 0.93 l 0.055,0.438 v 0.437 0.876 3.446 6.892 27.569 c 0.055,0 0.055,27.569 0.055,27.569 v 6.892 3.446 1.696 1.805 c -0.164,2.571 -1.368,5.032 -3.228,6.783 -1.859,1.75 -4.43,2.735 -6.946,2.735 z m 0,-2.078 c 2.024,0 4.048,-0.821 5.525,-2.188 1.477,-1.368 2.407,-3.337 2.571,-5.361 V 92.279 90.583 87.137 80.245 52.676 25.107 c 0.054,0 0.109,-6.892 0.109,-6.892 v -3.446 -0.875 -0.438 -0.383 -0.82 l -0.164,-0.766 c -0.164,-1.039 -0.492,-2.079 -0.985,-3.008 -0.218,-0.493 -0.492,-0.93 -0.765,-1.368 -0.329,-0.438 -0.602,-0.875 -0.985,-1.258 -1.422,-1.586 -3.282,-2.79 -5.306,-3.391 -1.039,-0.274 -2.078,-0.438 -3.118,-0.493 L 87.408,2.816861 C 70.17785,2.682031 52.94669,1.86 35.716,1.86 c -1.094,0 -2.188,0.109 -3.227,0.383 -0.547,0.109 -1.04,0.328 -1.532,0.492 -0.492,0.219 -0.985,0.438 -1.422,0.766 -0.93,0.547 -1.805,1.258 -2.516,2.024 -0.766,0.766 -1.368,1.695 -1.86,2.625 -0.492,0.93 -0.821,2.024 -1.094,3.064 -0.055,0.547 -0.219,1.094 -0.219,1.586 v 0.82 0.876 3.446 6.892 27.569 27.569 13.784 c 0.109,2.133 0.985,4.212 2.516,5.689 1.477,1.477 3.556,2.407 5.689,2.461 0,0 21.15828,2.59111 55.083,2.50856 33.92472,-0.0825 55.138,-2.78156 55.138,-2.78156 z"
     fill="#3F52E4"
     id="path25179"
     style="fill:#000000;fill-opacity:1"
     sodipodi:nodetypes="czcccccccccscccccccccccccccccccccccccccscccccccccccccccccccccccccccccscsccccccccczcc" />
  <path
     d="M 26.985719,100.47823 6.34,135.075 4.262,134.31 24.797719,99.65723 Z"
     fill="#3F52E4"
     id="path25181"
     style="fill:#000000;fill-opacity:1"
     sodipodi:nodetypes="ccccc" />
  <path
     d="m 150.10916,100.05635 19.29384,37.48065 -2.078,0.711 -19.18484,-37.48065 z"
     fill="#3F52E4"
     id="path25183"
     style="fill:#000000;fill-opacity:1"
     sodipodi:nodetypes="ccccc" />
  <path
     d="m 78.13114,90.32287 c -0.328,0 -0.547,-0.219 -0.547,-0.547 0,-0.328 0.219,-0.547 0.547,-0.547 h 18.66272 c 0.328,0 0.547,0.219 0.547,0.547 0,0.328 -0.219,0.547 -0.547,0.547 z"
     fill="#3f52e4"
     id="path25191"
     sodipodi:nodetypes="sssssss"
     style="fill:#000000;fill-opacity:1" />
</svg>
