<svg xmlns="http://www.w3.org/2000/svg" viewBox="0 0 800 180">

  <style>
    /* Base color palette -- https://coolors.co/9cf6f6-f3c98b-daa588-c46d5e-f56960 */
    :root {
      --color-palette-a: #9CF6F6;
      --color-palette-b: #F3C98B;
      --color-palette-c: #DAA588;
      --color-palette-d: #C46D5E;
      --color-palette-e: #F56960;
    }

    :root {
      color-scheme: light dark;
    }
    rect {
      fill: #fff;
      stroke: #666;
      stroke-width: .5px;
    }
    text {
      fill: #666;
      font: normal 20px sans-serif;
      text-align: center;
      text-anchor: middle;
    }

    #row_AD text,
    #row_AC text,
    .layerSym { opacity: 0; }
    .layerSym { font-weight: normal; fill: var(--color-palette-a-dark); }

    /* 'hints' theme */
    .m1 rect { fill: var(--color-palette-a); }
    .l2 rect { fill: var(--color-palette-a); }
    .r2 rect { fill: var(--color-palette-a); }
    .l3 rect,
    .r3 rect { fill: var(--color-palette-b); }
    .l4 rect,
    .r4 rect { fill: var(--color-palette-c); }
    .l5 rect,
    .r5 rect { fill: var(--color-palette-d); }

    @media (prefers-color-scheme: dark) {
      text                 { fill: #aaa; }
      rect                 { fill: #444; }
      .layerSym            { fill: #99f; }
      .dimmed rect { fill: #4444; }
    }
  </style>

  <defs>
    <g id="row_AD">
      <g transform="translate(0)" class="l5">
        <rect width="52" height="52" rx="5" ry="5"/>
        <text x="12.8" y="20.6" class="level2">Q</text>
        <text x="38.0" y="43.4" class="layerSym">^</text>
      </g>
      <g transform="translate(60)" class="l4">
        <rect width="52" height="52" rx="5" ry="5"/>
        <text x="12.8" y="20.6" class="level2">C</text>
        <text x="38.0" y="43.4" class="layerSym">&lt;</text>
      </g>
      <g transform="translate(120)" class="l3">
        <rect width="52" height="52" rx="5" ry="5"/>
        <text x="12.8" y="20.6" class="level2">O</text>
        <text x="38.0" y="43.4" class="layerSym">&gt;</text>
      </g>
      <g transform="translate(180)" class="l2">
        <rect width="52" height="52" rx="5" ry="5"/>
        <text x="12.8" y="20.6" class="level2">P</text>
        <text x="38.0" y="43.4" class="layerSym">$</text>
      </g>
      <g transform="translate(240)" class="l2">
        <rect width="52" height="52" rx="5" ry="5"/>
        <text x="12.8" y="20.6" class="level2">W</text>
        <text x="38.0" y="43.4" class="layerSym">%</text>
      </g>
    </g>

    <g id="row_AC">
      <g transform="translate(0)" class="l5">
        <rect width="52" height="52" rx="5" ry="5"/>
        <text x="12.8" y="20.6" class="level2">A</text>
        <text x="38.0" y="43.4" class="layerSym">{</text>
      </g>
      <g transform="translate(60)" class="l4">
        <rect width="52" height="52" rx="5" ry="5"/>
        <text x="12.8" y="20.6" class="level2">S</text>
        <text x="38.0" y="43.4" class="layerSym">(</text>
      </g>
      <g transform="translate(120)" class="l3">
        <rect width="52" height="52" rx="5" ry="5"/>
        <text x="12.8" y="20.6" class="level2">E</text>
        <text x="38.0" y="43.4" class="layerSym">)</text>
      </g>
      <g transform="translate(180)" class="l2">
        <rect width="52" height="52" rx="5" ry="5"/>
        <text x="12.8" y="20.6" class="level2">N</text>
        <text x="38.0" y="43.4" class="layerSym">}</text>
      </g>
      <g transform="translate(240)" class="l2">
        <rect width="52" height="52" rx="5" ry="5"/>
        <text x="12.8" y="20.6" class="level2">F</text>
        <text x="38.0" y="43.4" class="layerSym"> = </text>
      </g>
    </g>

    <g id="row_AB">
      <g transform="translate(0)" class="l5">
        <rect width="52" height="52" rx="5" ry="5"/>
        <text x="12.8" y="20.6" class="level2">Z</text>
        <text x="38.0" y="43.4" class="layerSym">~</text>
      </g>
      <g transform="translate(60)" class="l4">
        <rect width="52" height="52" rx="5" ry="5"/>
        <text x="12.8" y="20.6" class="level2">X</text>
        <text x="38.0" y="43.4" class="layerSym">[</text>
      </g>
      <g transform="translate(120)" class="l3">
        <rect width="52" height="52" rx="5" ry="5"/>
        <text x="12.8" y="43.4" class="level1">-</text>
        <text x="12.8" y="20.6" class="level2">?</text>
        <text x="38.0" y="43.4" class="layerSym">]</text>
      </g>
      <g transform="translate(180)" class="l2">
        <rect width="52" height="52" rx="5" ry="5"/>
        <text x="12.8" y="20.6" class="level2">V</text>
        <text x="38.0" y="43.4" class="layerSym">_</text>
      </g>
      <g transform="translate(240)" class="l2">
        <rect width="52" height="52" rx="5" ry="5"/>
        <text x="12.8" y="20.6" class="level2">B</text>
        <text x="38.0" y="43.4" class="layerSym">#</text>
      </g>
    </g>
  </defs>

  <g transform="translate(8)">
    <use x="16" y="0" href="#row_AD" />
    <use x="32" y="60" href="#row_AC" />
    <use x="60" y="120" href="#row_AB" />
    <use x="0" y="120" href="#iso" class="l5" />
    <g transform="translate(0 120)" class="l5">
      <rect width="52" height="52" rx="5" ry="5"/>
      <text x="12.8" y="43.4" class="level1">&lt;</text>
      <text x="12.8" y="20.6" class="level2">&gt;</text>
    </g>
  </g>

  <g transform="translate(400 92)">
    <text style="font-size: 92px; dominant-baseline: middle; fill: #555;">➤</text>
  </g>

  <g transform="translate(440)">
    <use x="16" y="0" href="#row_AD" />
    <use x="32" y="60" href="#row_AC" />
    <use x="0" y="120" href="#row_AB" />
    <g transform="translate(300 120)" opacity="0.7">
      <rect width="52" height="52" rx="5" ry="5"/>
      <text x="12.8" y="20.6" class="level2" style="font-size: 14px;">⌫</text>
    </g>
  </g>

</svg>
